<svg width="96" height="95" viewBox="0 0 96 95" xmlns="http://www.w3.org/2000/svg" xmlns:xlink="http://www.w3.org/1999/xlink">
    <defs>
        <filter x="-72.8%" y="-62%" width="245.7%" height="224%" filterUnits="objectBoundingBox" id="a">
            <feGaussianBlur stdDeviation="12" in="SourceGraphic"/>
        </filter>
        <filter x="-3.9%" y="-2.8%" width="107.8%" height="107.8%" filterUnits="objectBoundingBox" id="b">
            <feOffset dy="1" in="SourceAlpha" result="shadowOffsetOuter1"/>
            <feGaussianBlur stdDeviation="1" in="shadowOffsetOuter1" result="shadowBlurOuter1"/>
            <feColorMatrix values="0 0 0 0 0 0 0 0 0 0 0 0 0 0 0 0 0 0 0.3 0" in="shadowBlurOuter1"/>
        </filter>
        <linearGradient x1="50%" y1="0%" x2="50%" y2="99.544%" id="d">
            <stop stop-color="#FFF" offset="0%"/>
            <stop stop-color="#DFDFDF" offset="100%"/>
        </linearGradient>
        <rect id="c" x="2.644" y="2.5" width="90" height="90" rx="45"/>
    </defs>
    <g fill="none" fill-rule="evenodd">
        <path d="M28.249 36.944h33.43a8 8 0 0 1 8 8V87a8 8 0 0 1-8 8H28.25a8 8 0 0 1-8-8V44.944a8 8 0 0 1 8-8z" fill="#ACACAD" opacity=".75" filter="url(#a)"/>
        <g>
            <g>
                <use fill="#000" filter="url(#b)" xlink:href="#c"/>
                <use fill="url(#d)" xlink:href="#c"/>
            </g>
            <ellipse fill="#B1B1B1" opacity=".08" cx="66.702" cy="76" rx="42.88" ry="76"/>
            <ellipse fill="#B1B1B1" opacity=".08" cx="23.524" cy="140.917" rx="43.178" ry="76.528"/>
        </g>
        <text font-family="IRANSans-Bold, IRANSans" font-size="11.7" font-weight="bold" fill="#171717">
                    <tspan x="20.935" y="67.155">پشتیبانی</tspan>
                </text>
        <g stroke="#D21921" stroke-width="2.362" stroke-linecap="round" stroke-linejoin="round" stroke-dasharray="0,0">
            <path d="M61.769 43.153c0 1.743-.933 3.36-2.442 4.247l-9.24 5.336a4.92 4.92 0 0 1-4.9 0l-9.24-5.336a4.9 4.9 0 0 1-2.443-4.247v-10.64c0-1.742.934-3.36 2.443-4.246l9.24-5.336a4.92 4.92 0 0 1 4.9 0l9.24 5.336a4.918 4.918 0 0 1 2.442 4.246v10.64z"/>
            <path d="M47.644 36.278a3.624 3.624 0 1 1 0-7.25 3.624 3.624 0 0 1 0 7.25zM53.867 45.082c0-2.8-2.785-5.07-6.223-5.07-3.437 0-6.222 2.27-6.222 5.07"/>
        </g>
    </g>
</svg>
