<svg width="33" height="33" viewBox="0 0 33 33" xmlns="http://www.w3.org/2000/svg">
    <g stroke="#D21921" stroke-width="2.362" stroke-linecap="round" stroke-linejoin="round" stroke-dasharray="0,0" fill="none" fill-rule="evenodd">
        <path d="m17.917 27.836-6.922 4.604c-1.026.684-2.41-.047-2.41-1.291v-3.313c-4.668 0-7.779-3.111-7.779-7.778v-9.334c0-4.666 3.111-7.777 7.778-7.777H24.14c4.666 0 7.777 3.11 7.777 7.777v9.334c0 4.667-3.11 7.778-7.777 7.778h-6.223z"/>
        <path d="M16.362 16.838v-.327c0-1.058.653-1.618 1.307-2.069.637-.435 1.275-.995 1.275-2.022a2.576 2.576 0 0 0-2.582-2.582 2.576 2.576 0 0 0-2.582 2.582M16.355 20.556h.014"/>
    </g>
</svg>
