<svg width="32" height="33" viewBox="0 0 32 33" xmlns="http://www.w3.org/2000/svg">
    <g stroke="#D21921" stroke-width="2.362" stroke-linecap="round" stroke-linejoin="round" stroke-dasharray="0,0" fill="none" fill-rule="evenodd">
        <path d="M28.448 19.9c0 4.9-2.8 7-7 7h-14c-4.2 0-7-2.1-7-7v-8.4c0-4.9 2.8-7 7-7h4.2a5.995 5.995 0 0 0-.312 1.944v6.067c0 1.509.498 2.785 1.385 3.671.887.887 2.162 1.385 3.671 1.385v2.162c0 .793.902 1.275 1.571.84l4.496-3.002h4.044c.7 0 1.353-.11 1.945-.312V19.9z"/>
        <path d="M31.559 12.511c0 2.318-1.183 4.06-3.111 4.744a5.995 5.995 0 0 1-1.945.312H22.46l-4.496 3.002c-.669.435-1.571-.047-1.571-.84v-2.162c-1.509 0-2.784-.498-3.671-1.385-.887-.886-1.385-2.162-1.385-3.67V6.443c0-.7.11-1.353.312-1.944.684-1.929 2.426-3.111 4.744-3.111h10.111c3.033 0 5.056 2.022 5.056 5.055v6.067zM8.847 32.5h11.2M14.447 26.9v5.6M26.107 9.556h.014M21.752 9.556h.014M17.396 9.556h.014"/>
    </g>
</svg>
