<svg width="96" height="95" viewBox="0 0 96 95" xmlns="http://www.w3.org/2000/svg" xmlns:xlink="http://www.w3.org/1999/xlink">
    <defs>
        <filter x="-72.8%" y="-62%" width="245.7%" height="224%" filterUnits="objectBoundingBox" id="a">
            <feGaussianBlur stdDeviation="12" in="SourceGraphic"/>
        </filter>
        <filter x="-3.9%" y="-2.8%" width="107.8%" height="107.8%" filterUnits="objectBoundingBox" id="b">
            <feOffset dy="1" in="SourceAlpha" result="shadowOffsetOuter1"/>
            <feGaussianBlur stdDeviation="1" in="shadowOffsetOuter1" result="shadowBlurOuter1"/>
            <feColorMatrix values="0 0 0 0 0 0 0 0 0 0 0 0 0 0 0 0 0 0 0.3 0" in="shadowBlurOuter1"/>
        </filter>
        <linearGradient x1="50%" y1="0%" x2="50%" y2="99.544%" id="d">
            <stop stop-color="#FFF" offset="0%"/>
            <stop stop-color="#DFDFDF" offset="100%"/>
        </linearGradient>
        <rect id="c" x="2.644" y="2.5" width="90" height="90" rx="45"/>
    </defs>
    <g fill="none" fill-rule="evenodd">
        <path d="M28.249 36.944h33.43a8 8 0 0 1 8 8V87a8 8 0 0 1-8 8H28.25a8 8 0 0 1-8-8V44.944a8 8 0 0 1 8-8z" fill="#ACACAD" opacity=".75" filter="url(#a)" transform="translate(.359)"/>
        <g transform="translate(.359)">
            <g>
                <use fill="#000" filter="url(#b)" xlink:href="#c"/>
                <use fill="url(#d)" xlink:href="#c"/>
            </g>
            <ellipse fill="#B1B1B1" opacity=".08" cx="66.702" cy="76" rx="42.88" ry="76"/>
            <ellipse fill="#B1B1B1" opacity=".08" cx="23.524" cy="140.917" rx="43.178" ry="76.528"/>
        </g>
        <text font-family="IRANSans-Bold, IRANSans" font-size="11.7" font-weight="bold" fill="#171717" transform="translate(.359)">
                    <tspan x="22.306" y="67.155">نقشه راه</tspan>
                </text>
        <g stroke="#D21921" stroke-dasharray="0,0">
            <path d="M43.134 26.322c.731 3.158-1.275 5.833-3.018 7.498-1.275 1.213-3.282 1.198-4.557 0-1.727-1.665-3.734-4.34-3.003-7.498 1.245-5.382 9.35-5.382 10.578 0zM63.419 44.989c.73 3.157-1.276 5.833-3.034 7.497-1.275 1.214-3.297 1.198-4.573 0-1.758-1.664-3.764-4.34-3.033-7.497 1.244-5.383 9.395-5.383 10.64 0z" stroke-width="2.362"/>
            <path d="M48.003 26.944h4.169c2.878 0 4.216 3.563 2.053 5.46L41.796 43.278c-2.162 1.882-.824 5.444 2.038 5.444h4.17" stroke-width="2.362" stroke-linecap="round" stroke-linejoin="round"/>
            <path stroke-width="3.15" stroke-linecap="round" stroke-linejoin="round" d="M37.87 27.723h.018M58.092 46.389h.018"/>
        </g>
    </g>
</svg>
