<svg width="32" height="33" viewBox="0 0 32 33" xmlns="http://www.w3.org/2000/svg">
    <g stroke="#D21921" stroke-dasharray="0,0" fill="none" fill-rule="evenodd">
        <path d="M11.134 6.322c.731 3.158-1.275 5.833-3.018 7.498-1.275 1.213-3.282 1.198-4.557 0C1.832 12.155-.175 9.48.556 6.322 1.801.94 9.906.94 11.134 6.322zM31.419 24.989c.73 3.157-1.276 5.833-3.034 7.497-1.275 1.214-3.297 1.198-4.573 0-1.758-1.664-3.764-4.34-3.033-7.497 1.244-5.383 9.395-5.383 10.64 0z" stroke-width="2.362"/>
        <path d="M16.003 6.944h4.169c2.878 0 4.216 3.563 2.053 5.46L9.796 23.278c-2.162 1.882-.824 5.444 2.038 5.444h4.17" stroke-width="2.362" stroke-linecap="round" stroke-linejoin="round"/>
        <path stroke-width="3.15" stroke-linecap="round" stroke-linejoin="round" d="M5.87 7.723h.018M26.092 26.389h.018"/>
    </g>
</svg>
