<svg width="96" height="95" viewBox="0 0 96 95" xmlns="http://www.w3.org/2000/svg" xmlns:xlink="http://www.w3.org/1999/xlink">
    <defs>
        <filter x="-72.8%" y="-62%" width="245.7%" height="224%" filterUnits="objectBoundingBox" id="a">
            <feGaussianBlur stdDeviation="12" in="SourceGraphic"/>
        </filter>
        <filter x="-3.9%" y="-2.8%" width="107.8%" height="107.8%" filterUnits="objectBoundingBox" id="b">
            <feOffset dy="1" in="SourceAlpha" result="shadowOffsetOuter1"/>
            <feGaussianBlur stdDeviation="1" in="shadowOffsetOuter1" result="shadowBlurOuter1"/>
            <feColorMatrix values="0 0 0 0 0 0 0 0 0 0 0 0 0 0 0 0 0 0 0.3 0" in="shadowBlurOuter1"/>
        </filter>
        <linearGradient x1="50%" y1="0%" x2="50%" y2="99.544%" id="d">
            <stop stop-color="#FFF" offset="0%"/>
            <stop stop-color="#DFDFDF" offset="100%"/>
        </linearGradient>
        <rect id="c" x="2.644" y="2.5" width="90" height="90" rx="45"/>
    </defs>
    <g fill="none" fill-rule="evenodd">
        <path d="M28.249 36.944h33.43a8 8 0 0 1 8 8V87a8 8 0 0 1-8 8H28.25a8 8 0 0 1-8-8V44.944a8 8 0 0 1 8-8z" fill="#ACACAD" opacity=".75" filter="url(#a)" transform="translate(.359)"/>
        <g transform="translate(.359)">
            <g>
                <use fill="#000" filter="url(#b)" xlink:href="#c"/>
                <use fill="url(#d)" xlink:href="#c"/>
            </g>
            <ellipse fill="#B1B1B1" opacity=".08" cx="66.702" cy="76" rx="42.88" ry="76"/>
            <ellipse fill="#B1B1B1" opacity=".08" cx="23.524" cy="140.917" rx="43.178" ry="76.528"/>
        </g>
        <text font-family="IRANSans-Bold, IRANSans" font-size="11.7" font-weight="bold" fill="#171717" transform="translate(.359)">
                    <tspan x="21.472" y="67.155">کلاس ها</tspan>
                </text>
        <g stroke="#D21921" stroke-width="2.362" stroke-linecap="round" stroke-linejoin="round" stroke-dasharray="0,0">
            <path d="M60.448 39.9c0 4.9-2.8 7-7 7h-14c-4.2 0-7-2.1-7-7v-8.4c0-4.9 2.8-7 7-7h4.2a5.995 5.995 0 0 0-.312 1.944v6.067c0 1.509.498 2.785 1.385 3.671.887.887 2.162 1.385 3.671 1.385v2.162c0 .793.902 1.275 1.571.84l4.496-3.002h4.044c.7 0 1.353-.11 1.945-.312V39.9z"/>
            <path d="M63.559 32.511c0 2.318-1.183 4.06-3.111 4.744a5.995 5.995 0 0 1-1.945.312H54.46l-4.496 3.002c-.669.435-1.571-.047-1.571-.84v-2.162c-1.509 0-2.784-.498-3.671-1.385-.887-.886-1.385-2.162-1.385-3.67v-6.068c0-.7.11-1.353.312-1.944.684-1.929 2.426-3.111 4.744-3.111h10.111c3.033 0 5.056 2.022 5.056 5.055v6.067zM40.847 52.5h11.2M46.447 46.9v5.6M58.107 29.556h.014M53.752 29.556h.014M49.396 29.556h.014"/>
        </g>
    </g>
</svg>
