<svg width="38" height="38" viewBox="0 0 38 38" xmlns="http://www.w3.org/2000/svg">
    <g stroke="#D21921" stroke-dasharray="0,0" fill="none" fill-rule="evenodd">
        <path d="M14.134 7.322c.731 3.158-1.275 5.833-3.018 7.498-1.275 1.213-3.282 1.198-4.557 0-1.727-1.665-3.734-4.34-3.003-7.498 1.245-5.382 9.35-5.382 10.578 0zM34.419 25.989c.73 3.157-1.276 5.833-3.034 7.497-1.275 1.214-3.297 1.198-4.573 0-1.758-1.664-3.764-4.34-3.033-7.497 1.244-5.383 9.395-5.383 10.64 0z" stroke-width="2.362"/>
        <path d="M19.003 7.944h4.169c2.878 0 4.216 3.563 2.053 5.46L12.796 24.278c-2.162 1.882-.824 5.444 2.038 5.444h4.17" stroke-width="2.362" stroke-linecap="round" stroke-linejoin="round"/>
        <path stroke-width="3.15" stroke-linecap="round" stroke-linejoin="round" d="M8.87 8.723h.018M29.092 27.389h.018"/>
    </g>
</svg>
