<svg width="33" height="33" viewBox="0 0 33 33" xmlns="http://www.w3.org/2000/svg">
    <g stroke="#D21921" stroke-width="2.362" stroke-linecap="round" stroke-linejoin="round" stroke-dasharray="0,0" fill="none" fill-rule="evenodd">
        <path d="M30.769 23.153c0 1.743-.933 3.36-2.442 4.247l-9.24 5.336a4.92 4.92 0 0 1-4.9 0L4.947 27.4a4.9 4.9 0 0 1-2.443-4.247v-10.64c0-1.742.934-3.36 2.443-4.246l9.24-5.336a4.92 4.92 0 0 1 4.9 0l9.24 5.336a4.918 4.918 0 0 1 2.442 4.246v10.64z"/>
        <path d="M16.644 16.278a3.624 3.624 0 1 1 0-7.25 3.624 3.624 0 0 1 0 7.25zM22.867 25.082c0-2.8-2.785-5.07-6.223-5.07-3.437 0-6.222 2.27-6.222 5.07"/>
    </g>
</svg>
